PathFileType	4	(X/Y/Z)	W12_1_OpenSim.trc																																																																																																																						
DataRate	CameraRate	NumFrames	NumMarkers	Units	OrigDataRate	OrigDataStartFrame	OrigNumFrames																																																																																																																		
100	100	4	40	mm	100	376	3000																																																																																																																		
Frame#	Time	R.ASIS			R.PSIS			S2			L.PSIS			L.ASIS			R.TH1			R.TH2			R.TH3			R.MKnee			R.Knee			R.SH1			R.SH2			R.SH3			R.SH4			R.Ankle			R.MAnkle			R.Heel			R.MT5			R.MT1			L.TH1			L.TH2			L.TH3			L.TH4			L.MKnee			L.Knee			L.SH1			L.SH2			L.SH3			L.Ankle			L.MAnkle			L.Heel			L.MT5			L.MT1			R.Acr			L.Acr			C7			T10			Clav			Sternum			R.Back		
		X1	Y1	Z1	X2	Y2	Z2	X3	Y3	Z3	X4	Y4	Z4	X5	Y5	Z5	X6	Y6	Z6	X7	Y7	Z7	X8	Y8	Z8	X9	Y9	Z9	X10	Y10	Z10	X11	Y11	Z11	X12	Y12	Z12	X13	Y13	Z13	X14	Y14	Z14	X15	Y15	Z15	X16	Y16	Z16	X17	Y17	Z17	X18	Y18	Z18	X19	Y19	Z19	X20	Y20	Z20	X21	Y21	Z21	X22	Y22	Z22	X23	Y23	Z23	X24	Y24	Z24	X25	Y25	Z25	X26	Y26	Z26	X27	Y27	Z27	X28	Y28	Z28	X29	Y29	Z29	X30	Y30	Z30	X31	Y31	Z31	X32	Y32	Z32	X33	Y33	Z33	X34	Y34	Z34	X35	Y35	Z35	X36	Y36	Z36	X37	Y37	Z37	X38	Y38	Z38	X39	Y39	Z39	X40	Y40	Z40
376	3.75	942.7528	1033.4387	-422.1311	748.3926	1036.6581	-496.9387	737.3761	1033.2523	-541.5717	739.5164	1040.8663	-591.5925	906.1289	1029.7209	-716.4343	1007.2814	733.3206	-401.6705	934.5016	698.6998	-387.1458	979.2584	599.2967	-401.2789	1045.3219	499.784	-527.9784	1047.7246	504.2886	-411.7667	1107.9294	353.2436	-406.4427	1148.6284	249.8817	-423.7203	1030.6855	323.7446	-403.3255	1075.0698	219.6738	-411.175	1156.8501	74.6807	-418.2548	1189.6342	109.2139	-507.9339	1115.8765	26.3312	-481.7989	1277.5179	69.4581	-384.5908	1324.1555	95.1204	-468.5649	858.81	730.257	-722.1498	828.0013	626.9056	-708.172	778.0888	748.5572	-735.2411	750.4811	644.4041	-712.7903	762.9435	486.5613	-587.7748	751.1105	495.2946	-697.225	701.1903	367.5782	-710.0509	626.8623	404.6384	-711.9888	579.8798	305.6803	-704.335	543.4749	95.3226	-695.1558	576.3441	103.4912	-597.5053	473.0592	67.1028	-638.6353	640.7239	32.4507	-714.0718	682.4848	46.6072	-613.3455	876.8696	1427.0064	-395.321	847.0232	1427.5632	-720.3957	803.1432	1470.4952	-557.243	772.1481	1142.1675	-555.6498	942.1545	1375.8362	-567.5802	971.4186	1233.1321	-563.1197	729.4317	1372.416	-471.8892
377	3.76	944.3916	1032.7952	-420.1294	750.0276	1035.6426	-494.4866	738.8258	1032.0508	-539.0856	740.8453	1039.4487	-589.135	907.1426	1028.0779	-714.69	1009.6613	732.9443	-400.111	936.6086	698.3882	-386.6254	981.1297	599.0272	-401.514	1047.1802	500.1616	-528.1091	1049.7651	504.0222	-412.0992	1108.0961	351.4481	-407.8334	1146.4377	247.3218	-425.559	1030.4228	323.4932	-403.8153	1072.533	218.633	-412.2863	1149.4122	73.364	-419.7678	1183.2085	105.7013	-510.0338	1105.7821	27.1511	-482.8883	1269.8052	63.0685	-387.1622	1317.2903	85.2835	-471.6771	859.6952	729.0082	-720.4373	829.1279	625.4998	-706.9475	778.788	747.3091	-732.4995	751.5501	642.9332	-710.581	765.0949	484.4089	-586.9777	752.4888	493.8425	-696.3601	699.0165	367.3201	-709.4197	625.743	406.4547	-710.7569	576.1313	308.7573	-703.4817	534.0703	98.6639	-695.6547	567.4417	106.3918	-598.184	462.8662	73.1305	-638.9028	629.2838	32.4484	-714.4114	670.9765	46.4247	-613.3917	877.7624	1425.8284	-393.5056	847.3385	1426.0243	-718.4706	803.5956	1469.2369	-555.3854	773.3585	1140.7494	-553.7274	942.7743	1374.674	-565.8833	972.3474	1232.0193	-561.3815	730.2307	1371.0113	-469.8803
378	3.77	946.1916	1032.6041	-418.1842	751.7871	1035.1893	-492.0801	740.4361	1031.3771	-536.6501	742.3473	1038.5201	-586.7255	908.4688	1026.797	-712.834	1011.9211	732.9335	-398.376	938.6352	698.4988	-385.668	982.8583	599.1403	-401.2307	1048.1576	500.5294	-527.9924	1051.7136	504.1032	-412.0493	1108.116	350.1116	-408.8084	1144.0254	245.2292	-426.9814	1030.0798	323.7121	-403.5237	1069.9023	218.0556	-412.5996	1141.6416	72.3595	-420.7853	1176.1329	102.6393	-511.5993	1095.2131	28.2766	-483.4321	1261.7178	57.0502	-389.6018	1309.7881	75.7888	-474.7734	861.2139	727.9829	-718.6427	831.0898	624.2479	-705.7282	780.0726	746.1235	-729.7393	753.4375	641.4514	-708.4075	768.3397	482.2383	-586.3162	755.0314	492.4134	-695.6315	697.7252	367.3379	-708.9675	625.6646	408.612	-709.5341	573.3438	312.3147	-702.6118	525.3641	102.6198	-696.2646	559.3137	109.7755	-599.0209	453.4177	80.2557	-639.2154	618.0159	32.5432	-714.8231	659.5994	46.1854	-613.4476	878.5653	1425.0248	-391.591	847.5883	1424.7552	-716.49	804.0017	1468.2909	-553.4678	774.6935	1139.6443	-551.7995	943.3933	1373.9371	-564.078	973.4	1231.3825	-559.536	731.0194	1369.8554	-467.7978
379	3.78	948.0564	1032.9209	-416.2924	753.5774	1035.3084	-489.7855	742.1187	1031.2434	-534.332	743.9305	1038.1033	-584.431	910.0536	1025.9346	-710.8534	1014.0292	733.3494	-396.5022	940.5787	699.0688	-384.23	984.4685	599.6825	-400.3604	1048.4044	500.9742	-527.5705	1053.5322	504.5451	-411.5957	1107.8651	349.2105	-409.3161	1141.2759	243.5892	-427.9421	1029.5287	324.37	-402.4283	1067.0554	217.9253	-412.1118	1133.5094	71.6556	-421.3373	1168.4367	100.1468	-512.5911	1084.3757	29.541	-483.5252	1253.2078	51.7024	-391.6905	1301.6611	67.1321	-477.5495	863.444	727.1831	-716.7662	833.9887	623.15	-704.526	782.0371	744.9691	-727.0341	756.2404	639.9341	-706.3616	772.7922	480.0532	-585.8292	758.865	491.0027	-695.0868	697.5074	367.6281	-708.754	626.8104	411.0926	-708.3664	571.7062	316.3456	-701.7611	517.526	107.2369	-696.991	552.1159	113.6437	-600.0274	444.9537	88.5473	-639.5889	606.9599	32.8063	-715.3145	648.426	45.9287	-613.5222	879.2676	1424.6365	-389.5898	847.7541	1423.8129	-714.4717	804.3595	1467.695	-551.5024	776.0832	1138.9136	-549.8998	943.9904	1373.6605	-562.1728	974.5498	1231.2539	-557.5857	731.7931	1368.9949	-465.656
